<?xml version="1.0" encoding="UTF-8"?><svg id="a" xmlns="http://www.w3.org/2000/svg" width="210.04mm" height="210.04mm" viewBox="0 0 595.4 595.4"><defs><style>.b{fill:#35363b;stroke-width:0px;}</style></defs><path class="b" d="m508.21,87.19C451.98,30.97,377.22,0,297.7,0S143.42,30.97,87.19,87.19,0,218.18,0,297.7s30.97,154.28,87.19,210.51c56.23,56.23,130.99,87.19,210.51,87.19s154.28-30.97,210.51-87.19,87.19-130.99,87.19-210.51-30.97-154.28-87.19-210.51Zm-59.05,394.35l-85.8-160.66c10.64-4.36,20.33-11.07,28.49-19.93,14.65-15.92,22.72-37.06,22.72-59.52,0-47.27-36.57-85.72-81.51-85.72h-117.37v245l60,46v-233h57.37c12.96,0,23.51,12.44,23.51,27.72s-10.05,27.28-22.88,27.28h-35v57l100.15,187.73c-30.72,14.46-65.01,22.57-101.15,22.57-131.4,0-238.3-106.9-238.3-238.3S166.3,59.4,297.7,59.4s238.3,106.9,238.3,238.3c0,73.93-33.84,140.1-86.84,183.84Z"/></svg>